<svg xmlns="http://www.w3.org/2000/svg" version="1.1" xmlns:xlink="http://www.w3.org/1999/xlink" xmlns:svgjs="http://svgjs.com/svgjs" width="1440" height="560" preserveAspectRatio="none" viewBox="0 0 1440 560"><g mask="url(&quot;#SvgjsMask1100&quot;)" fill="none"><rect width="1440" height="560" x="0" y="0" fill="url(#SvgjsLinearGradient1101)"></rect><path d="M-57.85 523.89L-57.85 523.89" stroke="rgba(68, 201, 240, 1)" stroke-width="1.5"></path><path d="M-57.85 523.89L95.39 509.45" stroke="rgba(68, 201, 240, 1)" stroke-width="1.5"></path><path d="M-57.85 523.89L-46.47 699.17" stroke="rgba(68, 201, 240, 1)" stroke-width="1.5"></path><path d="M-46.47 699.17L-46.47 699.17" stroke="rgba(68, 201, 240, 1)" stroke-width="1.5"></path><path d="M-46.47 699.17L105.62 684.56" stroke="rgba(68, 201, 240, 1)" stroke-width="1.5"></path><path d="M-46.47 699.17L95.39 509.45" stroke="rgba(68, 201, 240, 1)" stroke-width="1.5"></path><path d="M-46.47 699.17L192.4 662.61" stroke="rgba(68, 201, 240, 1)" stroke-width="1.5"></path><path d="M-46.47 699.17L229.77 494.88" stroke="rgba(68, 201, 240, 1)" stroke-width="1.5"></path><path d="M93.11 383.24L93.11 383.24" stroke="rgba(68, 201, 240, 1)" stroke-width="1.5"></path><path d="M93.11 383.24L95.39 509.45" stroke="rgba(68, 201, 240, 1)" stroke-width="1.5"></path><path d="M93.11 383.24L229.77 494.88" stroke="rgba(68, 201, 240, 1)" stroke-width="1.5"></path><path d="M93.11 383.24L-57.85 523.89" stroke="rgba(68, 201, 240, 1)" stroke-width="1.5"></path><path d="M93.11 383.24L192.4 662.61" stroke="rgba(68, 201, 240, 1)" stroke-width="1.5"></path><path d="M93.11 383.24L105.62 684.56" stroke="rgba(68, 201, 240, 1)" stroke-width="1.5"></path><path d="M93.11 383.24L398.95 366.7" stroke="rgba(68, 201, 240, 1)" stroke-width="1.5"></path><path d="M95.39 509.45L95.39 509.45" stroke="rgba(68, 201, 240, 1)" stroke-width="1.5"></path><path d="M95.39 509.45L229.77 494.88" stroke="rgba(68, 201, 240, 1)" stroke-width="1.5"></path><path d="M95.39 509.45L105.62 684.56" stroke="rgba(68, 201, 240, 1)" stroke-width="1.5"></path><path d="M95.39 509.45L192.4 662.61" stroke="rgba(68, 201, 240, 1)" stroke-width="1.5"></path><path d="M105.62 684.56L105.62 684.56" stroke="rgba(68, 201, 240, 1)" stroke-width="1.5"></path><path d="M105.62 684.56L192.4 662.61" stroke="rgba(68, 201, 240, 1)" stroke-width="1.5"></path><path d="M105.62 684.56L229.77 494.88" stroke="rgba(68, 201, 240, 1)" stroke-width="1.5"></path><path d="M105.62 684.56L-57.85 523.89" stroke="rgba(68, 201, 240, 1)" stroke-width="1.5"></path><path d="M105.62 684.56L383.2 668.17" stroke="rgba(68, 201, 240, 1)" stroke-width="1.5"></path><path d="M229.77 494.88L229.77 494.88" stroke="rgba(68, 201, 240, 1)" stroke-width="1.5"></path><path d="M229.77 494.88L354.82 557.84" stroke="rgba(68, 201, 240, 1)" stroke-width="1.5"></path><path d="M229.77 494.88L192.4 662.61" stroke="rgba(68, 201, 240, 1)" stroke-width="1.5"></path><path d="M192.4 662.61L192.4 662.61" stroke="rgba(68, 201, 240, 1)" stroke-width="1.5"></path><path d="M192.4 662.61L383.2 668.17" stroke="rgba(68, 201, 240, 1)" stroke-width="1.5"></path><path d="M192.4 662.61L354.82 557.84" stroke="rgba(68, 201, 240, 1)" stroke-width="1.5"></path><path d="M398.95 366.7L398.95 366.7" stroke="rgba(68, 201, 240, 1)" stroke-width="1.5"></path><path d="M398.95 366.7L498.82 386.58" stroke="rgba(68, 201, 240, 1)" stroke-width="1.5"></path><path d="M398.95 366.7L354.82 557.84" stroke="rgba(68, 201, 240, 1)" stroke-width="1.5"></path><path d="M398.95 366.7L229.77 494.88" stroke="rgba(68, 201, 240, 1)" stroke-width="1.5"></path><path d="M398.95 366.7L383.2 668.17" stroke="rgba(68, 201, 240, 1)" stroke-width="1.5"></path><path d="M398.95 366.7L661.16 216.73" stroke="rgba(68, 201, 240, 1)" stroke-width="1.5"></path><path d="M354.82 557.84L354.82 557.84" stroke="rgba(68, 201, 240, 1)" stroke-width="1.5"></path><path d="M354.82 557.84L383.2 668.17" stroke="rgba(68, 201, 240, 1)" stroke-width="1.5"></path><path d="M383.2 668.17L383.2 668.17" stroke="rgba(68, 201, 240, 1)" stroke-width="1.5"></path><path d="M498.82 386.58L498.82 386.58" stroke="rgba(68, 201, 240, 1)" stroke-width="1.5"></path><path d="M498.82 386.58L701.01 343.68" stroke="rgba(68, 201, 240, 1)" stroke-width="1.5"></path><path d="M560.76 696.11L560.76 696.11" stroke="rgba(68, 201, 240, 1)" stroke-width="1.5"></path><path d="M560.76 696.11L709.85 712.49" stroke="rgba(68, 201, 240, 1)" stroke-width="1.5"></path><path d="M560.76 696.11L383.2 668.17" stroke="rgba(68, 201, 240, 1)" stroke-width="1.5"></path><path d="M560.76 696.11L354.82 557.84" stroke="rgba(68, 201, 240, 1)" stroke-width="1.5"></path><path d="M560.76 696.11L812.84 668.31" stroke="rgba(68, 201, 240, 1)" stroke-width="1.5"></path><path d="M560.76 696.11L788.95 546.27" stroke="rgba(68, 201, 240, 1)" stroke-width="1.5"></path><path d="M661.16 216.73L661.16 216.73" stroke="rgba(68, 201, 240, 1)" stroke-width="1.5"></path><path d="M661.16 216.73L701.01 343.68" stroke="rgba(68, 201, 240, 1)" stroke-width="1.5"></path><path d="M661.16 216.73L811.65 260.49" stroke="rgba(68, 201, 240, 1)" stroke-width="1.5"></path><path d="M661.16 216.73L834.71 347.47" stroke="rgba(68, 201, 240, 1)" stroke-width="1.5"></path><path d="M701.01 343.68L701.01 343.68" stroke="rgba(68, 201, 240, 1)" stroke-width="1.5"></path><path d="M701.01 343.68L834.71 347.47" stroke="rgba(68, 201, 240, 1)" stroke-width="1.5"></path><path d="M701.01 343.68L811.65 260.49" stroke="rgba(68, 201, 240, 1)" stroke-width="1.5"></path><path d="M709.85 712.49L709.85 712.49" stroke="rgba(68, 201, 240, 1)" stroke-width="1.5"></path><path d="M709.85 712.49L812.84 668.31" stroke="rgba(68, 201, 240, 1)" stroke-width="1.5"></path><path d="M709.85 712.49L788.95 546.27" stroke="rgba(68, 201, 240, 1)" stroke-width="1.5"></path><path d="M709.85 712.49L967.73 548.27" stroke="rgba(68, 201, 240, 1)" stroke-width="1.5"></path><path d="M709.85 712.49L383.2 668.17" stroke="rgba(68, 201, 240, 1)" stroke-width="1.5"></path><path d="M709.85 712.49L701.01 343.68" stroke="rgba(68, 201, 240, 1)" stroke-width="1.5"></path><path d="M811.65 260.49L811.65 260.49" stroke="rgba(68, 201, 240, 1)" stroke-width="1.5"></path><path d="M811.65 260.49L834.71 347.47" stroke="rgba(68, 201, 240, 1)" stroke-width="1.5"></path><path d="M834.71 347.47L834.71 347.47" stroke="rgba(68, 201, 240, 1)" stroke-width="1.5"></path><path d="M834.71 347.47L966.36 370.34" stroke="rgba(68, 201, 240, 1)" stroke-width="1.5"></path><path d="M788.95 546.27L788.95 546.27" stroke="rgba(68, 201, 240, 1)" stroke-width="1.5"></path><path d="M788.95 546.27L812.84 668.31" stroke="rgba(68, 201, 240, 1)" stroke-width="1.5"></path><path d="M788.95 546.27L967.73 548.27" stroke="rgba(68, 201, 240, 1)" stroke-width="1.5"></path><path d="M812.84 668.31L812.84 668.31" stroke="rgba(68, 201, 240, 1)" stroke-width="1.5"></path><path d="M812.84 668.31L967.73 548.27" stroke="rgba(68, 201, 240, 1)" stroke-width="1.5"></path><path d="M986.34 -88.83L986.34 -88.83" stroke="rgba(68, 201, 240, 1)" stroke-width="1.5"></path><path d="M986.34 -88.83L969.91 61.52" stroke="rgba(68, 201, 240, 1)" stroke-width="1.5"></path><path d="M986.34 -88.83L1155.25 -105.64" stroke="rgba(68, 201, 240, 1)" stroke-width="1.5"></path><path d="M986.34 -88.83L1152.52 90.91" stroke="rgba(68, 201, 240, 1)" stroke-width="1.5"></path><path d="M969.91 61.52L969.91 61.52" stroke="rgba(68, 201, 240, 1)" stroke-width="1.5"></path><path d="M969.91 61.52L1009.43 192.71" stroke="rgba(68, 201, 240, 1)" stroke-width="1.5"></path><path d="M969.91 61.52L1152.52 90.91" stroke="rgba(68, 201, 240, 1)" stroke-width="1.5"></path><path d="M969.91 61.52L1097.68 223.35" stroke="rgba(68, 201, 240, 1)" stroke-width="1.5"></path><path d="M969.91 61.52L1155.25 -105.64" stroke="rgba(68, 201, 240, 1)" stroke-width="1.5"></path><path d="M1009.43 192.71L1009.43 192.71" stroke="rgba(68, 201, 240, 1)" stroke-width="1.5"></path><path d="M1009.43 192.71L1097.68 223.35" stroke="rgba(68, 201, 240, 1)" stroke-width="1.5"></path><path d="M1009.43 192.71L1152.52 90.91" stroke="rgba(68, 201, 240, 1)" stroke-width="1.5"></path><path d="M1009.43 192.71L966.36 370.34" stroke="rgba(68, 201, 240, 1)" stroke-width="1.5"></path><path d="M1009.43 192.71L811.65 260.49" stroke="rgba(68, 201, 240, 1)" stroke-width="1.5"></path><path d="M966.36 370.34L966.36 370.34" stroke="rgba(68, 201, 240, 1)" stroke-width="1.5"></path><path d="M966.36 370.34L967.73 548.27" stroke="rgba(68, 201, 240, 1)" stroke-width="1.5"></path><path d="M966.36 370.34L811.65 260.49" stroke="rgba(68, 201, 240, 1)" stroke-width="1.5"></path><path d="M967.73 548.27L967.73 548.27" stroke="rgba(68, 201, 240, 1)" stroke-width="1.5"></path><path d="M967.73 548.27L1100.65 656.16" stroke="rgba(68, 201, 240, 1)" stroke-width="1.5"></path><path d="M1155.25 -105.64L1155.25 -105.64" stroke="rgba(68, 201, 240, 1)" stroke-width="1.5"></path><path d="M1155.25 -105.64L1300.07 -88.24" stroke="rgba(68, 201, 240, 1)" stroke-width="1.5"></path><path d="M1155.25 -105.64L1152.52 90.91" stroke="rgba(68, 201, 240, 1)" stroke-width="1.5"></path><path d="M1155.25 -105.64L1288.82 57.22" stroke="rgba(68, 201, 240, 1)" stroke-width="1.5"></path><path d="M1155.25 -105.64L1423.12 -81.41" stroke="rgba(68, 201, 240, 1)" stroke-width="1.5"></path><path d="M1152.52 90.91L1152.52 90.91" stroke="rgba(68, 201, 240, 1)" stroke-width="1.5"></path><path d="M1152.52 90.91L1288.82 57.22" stroke="rgba(68, 201, 240, 1)" stroke-width="1.5"></path><path d="M1152.52 90.91L1097.68 223.35" stroke="rgba(68, 201, 240, 1)" stroke-width="1.5"></path><path d="M1097.68 223.35L1097.68 223.35" stroke="rgba(68, 201, 240, 1)" stroke-width="1.5"></path><path d="M1100.65 656.16L1100.65 656.16" stroke="rgba(68, 201, 240, 1)" stroke-width="1.5"></path><path d="M1100.65 656.16L1261.68 674.54" stroke="rgba(68, 201, 240, 1)" stroke-width="1.5"></path><path d="M1300.07 -88.24L1300.07 -88.24" stroke="rgba(68, 201, 240, 1)" stroke-width="1.5"></path><path d="M1300.07 -88.24L1423.12 -81.41" stroke="rgba(68, 201, 240, 1)" stroke-width="1.5"></path><path d="M1300.07 -88.24L1288.82 57.22" stroke="rgba(68, 201, 240, 1)" stroke-width="1.5"></path><path d="M1300.07 -88.24L1453.61 75.1" stroke="rgba(68, 201, 240, 1)" stroke-width="1.5"></path><path d="M1288.82 57.22L1288.82 57.22" stroke="rgba(68, 201, 240, 1)" stroke-width="1.5"></path><path d="M1288.82 57.22L1453.61 75.1" stroke="rgba(68, 201, 240, 1)" stroke-width="1.5"></path><path d="M1288.82 57.22L1259.97 223.43" stroke="rgba(68, 201, 240, 1)" stroke-width="1.5"></path><path d="M1288.82 57.22L1423.12 -81.41" stroke="rgba(68, 201, 240, 1)" stroke-width="1.5"></path><path d="M1259.97 223.43L1259.97 223.43" stroke="rgba(68, 201, 240, 1)" stroke-width="1.5"></path><path d="M1259.97 223.43L1397.56 257.3" stroke="rgba(68, 201, 240, 1)" stroke-width="1.5"></path><path d="M1259.97 223.43L1256.1 385.21" stroke="rgba(68, 201, 240, 1)" stroke-width="1.5"></path><path d="M1259.97 223.43L1097.68 223.35" stroke="rgba(68, 201, 240, 1)" stroke-width="1.5"></path><path d="M1259.97 223.43L1152.52 90.91" stroke="rgba(68, 201, 240, 1)" stroke-width="1.5"></path><path d="M1259.97 223.43L1458.57 345.8" stroke="rgba(68, 201, 240, 1)" stroke-width="1.5"></path><path d="M1256.1 385.21L1256.1 385.21" stroke="rgba(68, 201, 240, 1)" stroke-width="1.5"></path><path d="M1256.1 385.21L1288.07 501.81" stroke="rgba(68, 201, 240, 1)" stroke-width="1.5"></path><path d="M1256.1 385.21L1397.56 257.3" stroke="rgba(68, 201, 240, 1)" stroke-width="1.5"></path><path d="M1288.07 501.81L1288.07 501.81" stroke="rgba(68, 201, 240, 1)" stroke-width="1.5"></path><path d="M1288.07 501.81L1394.04 551.1" stroke="rgba(68, 201, 240, 1)" stroke-width="1.5"></path><path d="M1288.07 501.81L1261.68 674.54" stroke="rgba(68, 201, 240, 1)" stroke-width="1.5"></path><path d="M1288.07 501.81L1458.11 652.88" stroke="rgba(68, 201, 240, 1)" stroke-width="1.5"></path><path d="M1288.07 501.81L1458.57 345.8" stroke="rgba(68, 201, 240, 1)" stroke-width="1.5"></path><path d="M1288.07 501.81L1100.65 656.16" stroke="rgba(68, 201, 240, 1)" stroke-width="1.5"></path><path d="M1261.68 674.54L1261.68 674.54" stroke="rgba(68, 201, 240, 1)" stroke-width="1.5"></path><path d="M1261.68 674.54L1394.04 551.1" stroke="rgba(68, 201, 240, 1)" stroke-width="1.5"></path><path d="M1261.68 674.54L1458.11 652.88" stroke="rgba(68, 201, 240, 1)" stroke-width="1.5"></path><path d="M1261.68 674.54L1256.1 385.21" stroke="rgba(68, 201, 240, 1)" stroke-width="1.5"></path><path d="M1261.68 674.54L967.73 548.27" stroke="rgba(68, 201, 240, 1)" stroke-width="1.5"></path><path d="M1423.12 -81.41L1423.12 -81.41" stroke="rgba(68, 201, 240, 1)" stroke-width="1.5"></path><path d="M1423.12 -81.41L1453.61 75.1" stroke="rgba(68, 201, 240, 1)" stroke-width="1.5"></path><path d="M1423.12 -81.41L1593.02 -71.45" stroke="rgba(68, 201, 240, 1)" stroke-width="1.5"></path><path d="M1453.61 75.1L1453.61 75.1" stroke="rgba(68, 201, 240, 1)" stroke-width="1.5"></path><path d="M1453.61 75.1L1565.26 94.75" stroke="rgba(68, 201, 240, 1)" stroke-width="1.5"></path><path d="M1453.61 75.1L1588.35 201.91" stroke="rgba(68, 201, 240, 1)" stroke-width="1.5"></path><path d="M1453.61 75.1L1397.56 257.3" stroke="rgba(68, 201, 240, 1)" stroke-width="1.5"></path><path d="M1397.56 257.3L1397.56 257.3" stroke="rgba(68, 201, 240, 1)" stroke-width="1.5"></path><path d="M1397.56 257.3L1458.57 345.8" stroke="rgba(68, 201, 240, 1)" stroke-width="1.5"></path><path d="M1397.56 257.3L1588.35 201.91" stroke="rgba(68, 201, 240, 1)" stroke-width="1.5"></path><path d="M1458.57 345.8L1458.57 345.8" stroke="rgba(68, 201, 240, 1)" stroke-width="1.5"></path><path d="M1458.57 345.8L1590 351.93" stroke="rgba(68, 201, 240, 1)" stroke-width="1.5"></path><path d="M1458.57 345.8L1588.35 201.91" stroke="rgba(68, 201, 240, 1)" stroke-width="1.5"></path><path d="M1394.04 551.1L1394.04 551.1" stroke="rgba(68, 201, 240, 1)" stroke-width="1.5"></path><path d="M1394.04 551.1L1458.11 652.88" stroke="rgba(68, 201, 240, 1)" stroke-width="1.5"></path><path d="M1394.04 551.1L1458.57 345.8" stroke="rgba(68, 201, 240, 1)" stroke-width="1.5"></path><path d="M1394.04 551.1L1256.1 385.21" stroke="rgba(68, 201, 240, 1)" stroke-width="1.5"></path><path d="M1394.04 551.1L1612.19 531.41" stroke="rgba(68, 201, 240, 1)" stroke-width="1.5"></path><path d="M1458.11 652.88L1458.11 652.88" stroke="rgba(68, 201, 240, 1)" stroke-width="1.5"></path><path d="M1458.11 652.88L1612.19 531.41" stroke="rgba(68, 201, 240, 1)" stroke-width="1.5"></path><path d="M1593.02 -71.45L1593.02 -71.45" stroke="rgba(68, 201, 240, 1)" stroke-width="1.5"></path><path d="M1593.02 -71.45L1565.26 94.75" stroke="rgba(68, 201, 240, 1)" stroke-width="1.5"></path><path d="M1593.02 -71.45L1453.61 75.1" stroke="rgba(68, 201, 240, 1)" stroke-width="1.5"></path><path d="M1593.02 -71.45L1588.35 201.91" stroke="rgba(68, 201, 240, 1)" stroke-width="1.5"></path><path d="M1593.02 -71.45L1300.07 -88.24" stroke="rgba(68, 201, 240, 1)" stroke-width="1.5"></path><path d="M1593.02 -71.45L1288.82 57.22" stroke="rgba(68, 201, 240, 1)" stroke-width="1.5"></path><path d="M1565.26 94.75L1565.26 94.75" stroke="rgba(68, 201, 240, 1)" stroke-width="1.5"></path><path d="M1565.26 94.75L1588.35 201.91" stroke="rgba(68, 201, 240, 1)" stroke-width="1.5"></path><path d="M1588.35 201.91L1588.35 201.91" stroke="rgba(68, 201, 240, 1)" stroke-width="1.5"></path><path d="M1588.35 201.91L1590 351.93" stroke="rgba(68, 201, 240, 1)" stroke-width="1.5"></path><path d="M1590 351.93L1590 351.93" stroke="rgba(68, 201, 240, 1)" stroke-width="1.5"></path><path d="M1590 351.93L1612.19 531.41" stroke="rgba(68, 201, 240, 1)" stroke-width="1.5"></path><path d="M1590 351.93L1397.56 257.3" stroke="rgba(68, 201, 240, 1)" stroke-width="1.5"></path><path d="M1590 351.93L1565.26 94.75" stroke="rgba(68, 201, 240, 1)" stroke-width="1.5"></path><path d="M1612.19 531.41L1612.19 531.41" stroke="rgba(68, 201, 240, 1)" stroke-width="1.5"></path><circle r="5" cx="-57.85" cy="523.89" fill="rgba(68, 201, 240, 1)"></circle><circle r="5" cx="-46.47" cy="699.17" fill="rgba(68, 201, 240, 1)"></circle><circle r="5" cx="93.11" cy="383.24" fill="rgba(68, 201, 240, 1)"></circle><circle r="5" cx="95.39" cy="509.45" fill="rgba(68, 201, 240, 1)"></circle><circle r="5" cx="105.62" cy="684.56" fill="rgba(68, 201, 240, 1)"></circle><circle r="5" cx="229.77" cy="494.88" fill="rgba(68, 201, 240, 1)"></circle><circle r="5" cx="192.4" cy="662.61" fill="rgba(68, 201, 240, 1)"></circle><circle r="5" cx="398.95" cy="366.7" fill="rgba(68, 201, 240, 1)"></circle><circle r="5" cx="354.82" cy="557.84" fill="rgba(68, 201, 240, 1)"></circle><circle r="5" cx="383.2" cy="668.17" fill="rgba(68, 201, 240, 1)"></circle><circle r="5" cx="498.82" cy="386.58" fill="rgba(68, 201, 240, 1)"></circle><circle r="5" cx="560.76" cy="696.11" fill="rgba(68, 201, 240, 1)"></circle><circle r="5" cx="661.16" cy="216.73" fill="rgba(68, 201, 240, 1)"></circle><circle r="5" cx="701.01" cy="343.68" fill="rgba(68, 201, 240, 1)"></circle><circle r="5" cx="709.85" cy="712.49" fill="rgba(68, 201, 240, 1)"></circle><circle r="5" cx="811.65" cy="260.49" fill="rgba(68, 201, 240, 1)"></circle><circle r="5" cx="834.71" cy="347.47" fill="rgba(68, 201, 240, 1)"></circle><circle r="5" cx="788.95" cy="546.27" fill="rgba(68, 201, 240, 1)"></circle><circle r="5" cx="812.84" cy="668.31" fill="rgba(68, 201, 240, 1)"></circle><circle r="5" cx="986.34" cy="-88.83" fill="rgba(68, 201, 240, 1)"></circle><circle r="5" cx="969.91" cy="61.52" fill="rgba(68, 201, 240, 1)"></circle><circle r="5" cx="1009.43" cy="192.71" fill="rgba(68, 201, 240, 1)"></circle><circle r="5" cx="966.36" cy="370.34" fill="rgba(68, 201, 240, 1)"></circle><circle r="5" cx="967.73" cy="548.27" fill="rgba(68, 201, 240, 1)"></circle><circle r="5" cx="1155.25" cy="-105.64" fill="rgba(68, 201, 240, 1)"></circle><circle r="5" cx="1152.52" cy="90.91" fill="rgba(68, 201, 240, 1)"></circle><circle r="5" cx="1097.68" cy="223.35" fill="rgba(68, 201, 240, 1)"></circle><circle r="5" cx="1100.65" cy="656.16" fill="rgba(68, 201, 240, 1)"></circle><circle r="5" cx="1300.07" cy="-88.24" fill="rgba(68, 201, 240, 1)"></circle><circle r="5" cx="1288.82" cy="57.22" fill="rgba(68, 201, 240, 1)"></circle><circle r="5" cx="1259.97" cy="223.43" fill="rgba(68, 201, 240, 1)"></circle><circle r="5" cx="1256.1" cy="385.21" fill="rgba(68, 201, 240, 1)"></circle><circle r="5" cx="1288.07" cy="501.81" fill="rgba(68, 201, 240, 1)"></circle><circle r="5" cx="1261.68" cy="674.54" fill="rgba(68, 201, 240, 1)"></circle><circle r="5" cx="1423.12" cy="-81.41" fill="rgba(68, 201, 240, 1)"></circle><circle r="5" cx="1453.61" cy="75.1" fill="rgba(68, 201, 240, 1)"></circle><circle r="5" cx="1397.56" cy="257.3" fill="rgba(68, 201, 240, 1)"></circle><circle r="5" cx="1458.57" cy="345.8" fill="rgba(68, 201, 240, 1)"></circle><circle r="5" cx="1394.04" cy="551.1" fill="rgba(68, 201, 240, 1)"></circle><circle r="5" cx="1458.11" cy="652.88" fill="rgba(68, 201, 240, 1)"></circle><circle r="5" cx="1593.02" cy="-71.45" fill="rgba(68, 201, 240, 1)"></circle><circle r="5" cx="1565.26" cy="94.75" fill="rgba(68, 201, 240, 1)"></circle><circle r="5" cx="1588.35" cy="201.91" fill="rgba(68, 201, 240, 1)"></circle><circle r="5" cx="1590" cy="351.93" fill="rgba(68, 201, 240, 1)"></circle><circle r="5" cx="1612.19" cy="531.41" fill="rgba(68, 201, 240, 1)"></circle><path d="M224.98 526.96L224.98 526.96" stroke="hsl(193.60000000000002, 85.1%, 78.5%)" stroke-width="1.5"></path><path d="M224.98 526.96L238.55 668.9" stroke="hsl(193.60000000000002, 85.1%, 78.5%)" stroke-width="1.5"></path><path d="M224.98 526.96L396.25 508.84" stroke="hsl(193.60000000000002, 85.1%, 78.5%)" stroke-width="1.5"></path><path d="M224.98 526.96L90.84 673.45" stroke="hsl(193.60000000000002, 85.1%, 78.5%)" stroke-width="1.5"></path><path d="M224.98 526.96L-72.64 649.08" stroke="hsl(193.60000000000002, 85.1%, 78.5%)" stroke-width="1.5"></path><path d="M956.52 676.69L956.52 676.69" stroke="hsl(193.60000000000002, 85.1%, 78.5%)" stroke-width="1.5"></path><path d="M956.52 676.69L824.68 646.78" stroke="hsl(193.60000000000002, 85.1%, 78.5%)" stroke-width="1.5"></path><path d="M956.52 676.69L1010.71 508.18" stroke="hsl(193.60000000000002, 85.1%, 78.5%)" stroke-width="1.5"></path><path d="M956.52 676.69L1140.56 705.47" stroke="hsl(193.60000000000002, 85.1%, 78.5%)" stroke-width="1.5"></path><path d="M1409.76 -66.26L1409.76 -66.26" stroke="hsl(193.60000000000002, 85.1%, 78.5%)" stroke-width="1.5"></path><path d="M1409.76 -66.26L1435.05 45.63" stroke="hsl(193.60000000000002, 85.1%, 78.5%)" stroke-width="1.5"></path><path d="M1409.76 -66.26L1538.11 -99.12" stroke="hsl(193.60000000000002, 85.1%, 78.5%)" stroke-width="1.5"></path><path d="M-98.51 510.48L-98.51 510.48" stroke="hsl(193.60000000000002, 85.1%, 78.5%)" stroke-width="1.5"></path><path d="M-98.51 510.48L-72.64 649.08" stroke="hsl(193.60000000000002, 85.1%, 78.5%)" stroke-width="1.5"></path><path d="M-98.51 510.48L90.84 673.45" stroke="hsl(193.60000000000002, 85.1%, 78.5%)" stroke-width="1.5"></path><path d="M-98.51 510.48L224.98 526.96" stroke="hsl(193.60000000000002, 85.1%, 78.5%)" stroke-width="1.5"></path><path d="M-98.51 510.48L238.55 668.9" stroke="hsl(193.60000000000002, 85.1%, 78.5%)" stroke-width="1.5"></path><path d="M-72.64 649.08L-72.64 649.08" stroke="hsl(193.60000000000002, 85.1%, 78.5%)" stroke-width="1.5"></path><path d="M-72.64 649.08L90.84 673.45" stroke="hsl(193.60000000000002, 85.1%, 78.5%)" stroke-width="1.5"></path><path d="M-72.64 649.08L238.55 668.9" stroke="hsl(193.60000000000002, 85.1%, 78.5%)" stroke-width="1.5"></path><path d="M-72.64 649.08L396.25 508.84" stroke="hsl(193.60000000000002, 85.1%, 78.5%)" stroke-width="1.5"></path><path d="M-72.64 649.08L506.41 690.37" stroke="hsl(193.60000000000002, 85.1%, 78.5%)" stroke-width="1.5"></path><path d="M90.84 673.45L90.84 673.45" stroke="hsl(193.60000000000002, 85.1%, 78.5%)" stroke-width="1.5"></path><path d="M90.84 673.45L238.55 668.9" stroke="hsl(193.60000000000002, 85.1%, 78.5%)" stroke-width="1.5"></path><path d="M238.55 668.9L238.55 668.9" stroke="hsl(193.60000000000002, 85.1%, 78.5%)" stroke-width="1.5"></path><path d="M396.25 508.84L396.25 508.84" stroke="hsl(193.60000000000002, 85.1%, 78.5%)" stroke-width="1.5"></path><path d="M396.25 508.84L549.62 498.04" stroke="hsl(193.60000000000002, 85.1%, 78.5%)" stroke-width="1.5"></path><path d="M549.62 498.04L549.62 498.04" stroke="hsl(193.60000000000002, 85.1%, 78.5%)" stroke-width="1.5"></path><path d="M549.62 498.04L506.41 690.37" stroke="hsl(193.60000000000002, 85.1%, 78.5%)" stroke-width="1.5"></path><path d="M549.62 498.04L705.43 355.33" stroke="hsl(193.60000000000002, 85.1%, 78.5%)" stroke-width="1.5"></path><path d="M506.41 690.37L506.41 690.37" stroke="hsl(193.60000000000002, 85.1%, 78.5%)" stroke-width="1.5"></path><path d="M506.41 690.37L685.41 677.09" stroke="hsl(193.60000000000002, 85.1%, 78.5%)" stroke-width="1.5"></path><path d="M506.41 690.37L396.25 508.84" stroke="hsl(193.60000000000002, 85.1%, 78.5%)" stroke-width="1.5"></path><path d="M506.41 690.37L238.55 668.9" stroke="hsl(193.60000000000002, 85.1%, 78.5%)" stroke-width="1.5"></path><path d="M506.41 690.37L824.68 646.78" stroke="hsl(193.60000000000002, 85.1%, 78.5%)" stroke-width="1.5"></path><path d="M506.41 690.37L224.98 526.96" stroke="hsl(193.60000000000002, 85.1%, 78.5%)" stroke-width="1.5"></path><path d="M705.43 355.33L705.43 355.33" stroke="hsl(193.60000000000002, 85.1%, 78.5%)" stroke-width="1.5"></path><path d="M705.43 355.33L854.29 394.67" stroke="hsl(193.60000000000002, 85.1%, 78.5%)" stroke-width="1.5"></path><path d="M705.43 355.33L846.12 503" stroke="hsl(193.60000000000002, 85.1%, 78.5%)" stroke-width="1.5"></path><path d="M705.43 355.33L960.18 360.21" stroke="hsl(193.60000000000002, 85.1%, 78.5%)" stroke-width="1.5"></path><path d="M685.41 677.09L685.41 677.09" stroke="hsl(193.60000000000002, 85.1%, 78.5%)" stroke-width="1.5"></path><path d="M685.41 677.09L824.68 646.78" stroke="hsl(193.60000000000002, 85.1%, 78.5%)" stroke-width="1.5"></path><path d="M854.29 394.67L854.29 394.67" stroke="hsl(193.60000000000002, 85.1%, 78.5%)" stroke-width="1.5"></path><path d="M854.29 394.67L846.12 503" stroke="hsl(193.60000000000002, 85.1%, 78.5%)" stroke-width="1.5"></path><path d="M854.29 394.67L960.18 360.21" stroke="hsl(193.60000000000002, 85.1%, 78.5%)" stroke-width="1.5"></path><path d="M846.12 503L846.12 503" stroke="hsl(193.60000000000002, 85.1%, 78.5%)" stroke-width="1.5"></path><path d="M846.12 503L824.68 646.78" stroke="hsl(193.60000000000002, 85.1%, 78.5%)" stroke-width="1.5"></path><path d="M846.12 503L1010.71 508.18" stroke="hsl(193.60000000000002, 85.1%, 78.5%)" stroke-width="1.5"></path><path d="M846.12 503L960.18 360.21" stroke="hsl(193.60000000000002, 85.1%, 78.5%)" stroke-width="1.5"></path><path d="M824.68 646.78L824.68 646.78" stroke="hsl(193.60000000000002, 85.1%, 78.5%)" stroke-width="1.5"></path><path d="M960.18 360.21L960.18 360.21" stroke="hsl(193.60000000000002, 85.1%, 78.5%)" stroke-width="1.5"></path><path d="M960.18 360.21L1010.71 508.18" stroke="hsl(193.60000000000002, 85.1%, 78.5%)" stroke-width="1.5"></path><path d="M960.18 360.21L1099.25 256.94" stroke="hsl(193.60000000000002, 85.1%, 78.5%)" stroke-width="1.5"></path><path d="M960.18 360.21L1127.39 542.14" stroke="hsl(193.60000000000002, 85.1%, 78.5%)" stroke-width="1.5"></path><path d="M1010.71 508.18L1010.71 508.18" stroke="hsl(193.60000000000002, 85.1%, 78.5%)" stroke-width="1.5"></path><path d="M1010.71 508.18L1127.39 542.14" stroke="hsl(193.60000000000002, 85.1%, 78.5%)" stroke-width="1.5"></path><path d="M1161.24 -111.45L1161.24 -111.45" stroke="hsl(193.60000000000002, 85.1%, 78.5%)" stroke-width="1.5"></path><path d="M1161.24 -111.45L1257.63 -54.39" stroke="hsl(193.60000000000002, 85.1%, 78.5%)" stroke-width="1.5"></path><path d="M1161.24 -111.45L1306.19 47.3" stroke="hsl(193.60000000000002, 85.1%, 78.5%)" stroke-width="1.5"></path><path d="M1161.24 -111.45L1409.76 -66.26" stroke="hsl(193.60000000000002, 85.1%, 78.5%)" stroke-width="1.5"></path><path d="M1161.24 -111.45L1435.05 45.63" stroke="hsl(193.60000000000002, 85.1%, 78.5%)" stroke-width="1.5"></path><path d="M1161.24 -111.45L1240.55 216.21" stroke="hsl(193.60000000000002, 85.1%, 78.5%)" stroke-width="1.5"></path><path d="M1099.25 256.94L1099.25 256.94" stroke="hsl(193.60000000000002, 85.1%, 78.5%)" stroke-width="1.5"></path><path d="M1099.25 256.94L1240.55 216.21" stroke="hsl(193.60000000000002, 85.1%, 78.5%)" stroke-width="1.5"></path><path d="M1099.25 256.94L1010.71 508.18" stroke="hsl(193.60000000000002, 85.1%, 78.5%)" stroke-width="1.5"></path><path d="M1099.25 256.94L854.29 394.67" stroke="hsl(193.60000000000002, 85.1%, 78.5%)" stroke-width="1.5"></path><path d="M1099.25 256.94L1127.39 542.14" stroke="hsl(193.60000000000002, 85.1%, 78.5%)" stroke-width="1.5"></path><path d="M1099.25 256.94L1306.19 47.3" stroke="hsl(193.60000000000002, 85.1%, 78.5%)" stroke-width="1.5"></path><path d="M1127.39 542.14L1127.39 542.14" stroke="hsl(193.60000000000002, 85.1%, 78.5%)" stroke-width="1.5"></path><path d="M1127.39 542.14L1276.95 528.34" stroke="hsl(193.60000000000002, 85.1%, 78.5%)" stroke-width="1.5"></path><path d="M1140.56 705.47L1140.56 705.47" stroke="hsl(193.60000000000002, 85.1%, 78.5%)" stroke-width="1.5"></path><path d="M1140.56 705.47L1277.79 667.41" stroke="hsl(193.60000000000002, 85.1%, 78.5%)" stroke-width="1.5"></path><path d="M1140.56 705.47L1127.39 542.14" stroke="hsl(193.60000000000002, 85.1%, 78.5%)" stroke-width="1.5"></path><path d="M1140.56 705.47L1276.95 528.34" stroke="hsl(193.60000000000002, 85.1%, 78.5%)" stroke-width="1.5"></path><path d="M1257.63 -54.39L1257.63 -54.39" stroke="hsl(193.60000000000002, 85.1%, 78.5%)" stroke-width="1.5"></path><path d="M1257.63 -54.39L1306.19 47.3" stroke="hsl(193.60000000000002, 85.1%, 78.5%)" stroke-width="1.5"></path><path d="M1257.63 -54.39L1409.76 -66.26" stroke="hsl(193.60000000000002, 85.1%, 78.5%)" stroke-width="1.5"></path><path d="M1306.19 47.3L1306.19 47.3" stroke="hsl(193.60000000000002, 85.1%, 78.5%)" stroke-width="1.5"></path><path d="M1306.19 47.3L1435.05 45.63" stroke="hsl(193.60000000000002, 85.1%, 78.5%)" stroke-width="1.5"></path><path d="M1306.19 47.3L1409.76 -66.26" stroke="hsl(193.60000000000002, 85.1%, 78.5%)" stroke-width="1.5"></path><path d="M1306.19 47.3L1240.55 216.21" stroke="hsl(193.60000000000002, 85.1%, 78.5%)" stroke-width="1.5"></path><path d="M1306.19 47.3L1421.17 249.75" stroke="hsl(193.60000000000002, 85.1%, 78.5%)" stroke-width="1.5"></path><path d="M1240.55 216.21L1240.55 216.21" stroke="hsl(193.60000000000002, 85.1%, 78.5%)" stroke-width="1.5"></path><path d="M1240.55 216.21L1421.17 249.75" stroke="hsl(193.60000000000002, 85.1%, 78.5%)" stroke-width="1.5"></path><path d="M1240.55 216.21L1435.05 45.63" stroke="hsl(193.60000000000002, 85.1%, 78.5%)" stroke-width="1.5"></path><path d="M1240.55 216.21L1257.63 -54.39" stroke="hsl(193.60000000000002, 85.1%, 78.5%)" stroke-width="1.5"></path><path d="M1276.95 528.34L1276.95 528.34" stroke="hsl(193.60000000000002, 85.1%, 78.5%)" stroke-width="1.5"></path><path d="M1276.95 528.34L1277.79 667.41" stroke="hsl(193.60000000000002, 85.1%, 78.5%)" stroke-width="1.5"></path><path d="M1276.95 528.34L1421.27 528.43" stroke="hsl(193.60000000000002, 85.1%, 78.5%)" stroke-width="1.5"></path><path d="M1276.95 528.34L1400.4 644.9" stroke="hsl(193.60000000000002, 85.1%, 78.5%)" stroke-width="1.5"></path><path d="M1277.79 667.41L1277.79 667.41" stroke="hsl(193.60000000000002, 85.1%, 78.5%)" stroke-width="1.5"></path><path d="M1277.79 667.41L1400.4 644.9" stroke="hsl(193.60000000000002, 85.1%, 78.5%)" stroke-width="1.5"></path><path d="M1435.05 45.63L1435.05 45.63" stroke="hsl(193.60000000000002, 85.1%, 78.5%)" stroke-width="1.5"></path><path d="M1435.05 45.63L1566.62 101.12" stroke="hsl(193.60000000000002, 85.1%, 78.5%)" stroke-width="1.5"></path><path d="M1435.05 45.63L1538.11 -99.12" stroke="hsl(193.60000000000002, 85.1%, 78.5%)" stroke-width="1.5"></path><path d="M1435.05 45.63L1257.63 -54.39" stroke="hsl(193.60000000000002, 85.1%, 78.5%)" stroke-width="1.5"></path><path d="M1421.17 249.75L1421.17 249.75" stroke="hsl(193.60000000000002, 85.1%, 78.5%)" stroke-width="1.5"></path><path d="M1421.17 249.75L1445.26 395.61" stroke="hsl(193.60000000000002, 85.1%, 78.5%)" stroke-width="1.5"></path><path d="M1421.17 249.75L1611.32 258.06" stroke="hsl(193.60000000000002, 85.1%, 78.5%)" stroke-width="1.5"></path><path d="M1445.26 395.61L1445.26 395.61" stroke="hsl(193.60000000000002, 85.1%, 78.5%)" stroke-width="1.5"></path><path d="M1445.26 395.61L1421.27 528.43" stroke="hsl(193.60000000000002, 85.1%, 78.5%)" stroke-width="1.5"></path><path d="M1445.26 395.61L1592.25 411.58" stroke="hsl(193.60000000000002, 85.1%, 78.5%)" stroke-width="1.5"></path><path d="M1421.27 528.43L1421.27 528.43" stroke="hsl(193.60000000000002, 85.1%, 78.5%)" stroke-width="1.5"></path><path d="M1421.27 528.43L1400.4 644.9" stroke="hsl(193.60000000000002, 85.1%, 78.5%)" stroke-width="1.5"></path><path d="M1421.27 528.43L1605.22 561.56" stroke="hsl(193.60000000000002, 85.1%, 78.5%)" stroke-width="1.5"></path><path d="M1421.27 528.43L1277.79 667.41" stroke="hsl(193.60000000000002, 85.1%, 78.5%)" stroke-width="1.5"></path><path d="M1421.27 528.43L1543.64 689.5" stroke="hsl(193.60000000000002, 85.1%, 78.5%)" stroke-width="1.5"></path><path d="M1400.4 644.9L1400.4 644.9" stroke="hsl(193.60000000000002, 85.1%, 78.5%)" stroke-width="1.5"></path><path d="M1400.4 644.9L1543.64 689.5" stroke="hsl(193.60000000000002, 85.1%, 78.5%)" stroke-width="1.5"></path><path d="M1538.11 -99.12L1538.11 -99.12" stroke="hsl(193.60000000000002, 85.1%, 78.5%)" stroke-width="1.5"></path><path d="M1538.11 -99.12L1566.62 101.12" stroke="hsl(193.60000000000002, 85.1%, 78.5%)" stroke-width="1.5"></path><path d="M1538.11 -99.12L1306.19 47.3" stroke="hsl(193.60000000000002, 85.1%, 78.5%)" stroke-width="1.5"></path><path d="M1538.11 -99.12L1257.63 -54.39" stroke="hsl(193.60000000000002, 85.1%, 78.5%)" stroke-width="1.5"></path><path d="M1566.62 101.12L1566.62 101.12" stroke="hsl(193.60000000000002, 85.1%, 78.5%)" stroke-width="1.5"></path><path d="M1566.62 101.12L1611.32 258.06" stroke="hsl(193.60000000000002, 85.1%, 78.5%)" stroke-width="1.5"></path><path d="M1566.62 101.12L1421.17 249.75" stroke="hsl(193.60000000000002, 85.1%, 78.5%)" stroke-width="1.5"></path><path d="M1566.62 101.12L1409.76 -66.26" stroke="hsl(193.60000000000002, 85.1%, 78.5%)" stroke-width="1.5"></path><path d="M1611.32 258.06L1611.32 258.06" stroke="hsl(193.60000000000002, 85.1%, 78.5%)" stroke-width="1.5"></path><path d="M1611.32 258.06L1592.25 411.58" stroke="hsl(193.60000000000002, 85.1%, 78.5%)" stroke-width="1.5"></path><path d="M1611.32 258.06L1445.26 395.61" stroke="hsl(193.60000000000002, 85.1%, 78.5%)" stroke-width="1.5"></path><path d="M1592.25 411.58L1592.25 411.58" stroke="hsl(193.60000000000002, 85.1%, 78.5%)" stroke-width="1.5"></path><path d="M1592.25 411.58L1605.22 561.56" stroke="hsl(193.60000000000002, 85.1%, 78.5%)" stroke-width="1.5"></path><path d="M1605.22 561.56L1605.22 561.56" stroke="hsl(193.60000000000002, 85.1%, 78.5%)" stroke-width="1.5"></path><path d="M1605.22 561.56L1543.64 689.5" stroke="hsl(193.60000000000002, 85.1%, 78.5%)" stroke-width="1.5"></path><path d="M1543.64 689.5L1543.64 689.5" stroke="hsl(193.60000000000002, 85.1%, 78.5%)" stroke-width="1.5"></path><path d="M1543.64 689.5L1277.79 667.41" stroke="hsl(193.60000000000002, 85.1%, 78.5%)" stroke-width="1.5"></path><path d="M1543.64 689.5L1592.25 411.58" stroke="hsl(193.60000000000002, 85.1%, 78.5%)" stroke-width="1.5"></path><circle r="25" cx="224.98" cy="526.96" fill="url(#SvgjsRadialGradient1102)"></circle><circle r="25" cx="956.52" cy="676.69" fill="url(#SvgjsRadialGradient1102)"></circle><circle r="25" cx="1409.76" cy="-66.26" fill="url(#SvgjsRadialGradient1102)"></circle><circle r="5" cx="-98.51" cy="510.48" fill="#a2e4f8"></circle><circle r="5" cx="-72.64" cy="649.08" fill="#a2e4f8"></circle><circle r="5" cx="90.84" cy="673.45" fill="#a2e4f8"></circle><circle r="5" cx="238.55" cy="668.9" fill="#a2e4f8"></circle><circle r="5" cx="396.25" cy="508.84" fill="#a2e4f8"></circle><circle r="5" cx="549.62" cy="498.04" fill="#a2e4f8"></circle><circle r="5" cx="506.41" cy="690.37" fill="#a2e4f8"></circle><circle r="5" cx="705.43" cy="355.33" fill="#a2e4f8"></circle><circle r="5" cx="685.41" cy="677.09" fill="#a2e4f8"></circle><circle r="5" cx="854.29" cy="394.67" fill="#a2e4f8"></circle><circle r="5" cx="846.12" cy="503" fill="#a2e4f8"></circle><circle r="5" cx="824.68" cy="646.78" fill="#a2e4f8"></circle><circle r="5" cx="960.18" cy="360.21" fill="#a2e4f8"></circle><circle r="5" cx="1010.71" cy="508.18" fill="#a2e4f8"></circle><circle r="5" cx="1161.24" cy="-111.45" fill="#a2e4f8"></circle><circle r="5" cx="1099.25" cy="256.94" fill="#a2e4f8"></circle><circle r="5" cx="1127.39" cy="542.14" fill="#a2e4f8"></circle><circle r="5" cx="1140.56" cy="705.47" fill="#a2e4f8"></circle><circle r="5" cx="1257.63" cy="-54.39" fill="#a2e4f8"></circle><circle r="5" cx="1306.19" cy="47.3" fill="#a2e4f8"></circle><circle r="5" cx="1240.55" cy="216.21" fill="#a2e4f8"></circle><circle r="5" cx="1276.95" cy="528.34" fill="#a2e4f8"></circle><circle r="5" cx="1277.79" cy="667.41" fill="#a2e4f8"></circle><circle r="5" cx="1435.05" cy="45.63" fill="#a2e4f8"></circle><circle r="5" cx="1421.17" cy="249.75" fill="#a2e4f8"></circle><circle r="5" cx="1445.26" cy="395.61" fill="#a2e4f8"></circle><circle r="5" cx="1421.27" cy="528.43" fill="#a2e4f8"></circle><circle r="5" cx="1400.4" cy="644.9" fill="#a2e4f8"></circle><circle r="5" cx="1538.11" cy="-99.12" fill="#a2e4f8"></circle><circle r="5" cx="1566.62" cy="101.12" fill="#a2e4f8"></circle><circle r="5" cx="1611.32" cy="258.06" fill="#a2e4f8"></circle><circle r="5" cx="1592.25" cy="411.58" fill="#a2e4f8"></circle><circle r="5" cx="1605.22" cy="561.56" fill="#a2e4f8"></circle><circle r="5" cx="1543.64" cy="689.5" fill="#a2e4f8"></circle></g><defs><mask id="SvgjsMask1100"><rect width="1440" height="560" fill="#ffffff"></rect></mask><linearGradient x1="15.28%" y1="-39.29%" x2="84.72%" y2="139.29%" gradientUnits="userSpaceOnUse" id="SvgjsLinearGradient1101"><stop stop-color="rgba(16, 91, 167, 1)" offset="0.05"></stop><stop stop-color="rgba(180, 68, 161, 1)" offset="1"></stop></linearGradient><radialGradient id="SvgjsRadialGradient1102"><stop stop-color="#ffffff" offset="0.1"></stop><stop stop-color="rgba(68, 201, 240, 1)" offset="0.2"></stop><stop stop-color="rgba(68, 201, 240, 0)" offset="1"></stop></radialGradient></defs></svg>